<?xml version="1.0" encoding="utf-8"?><svg viewBox="0 0 484.38 500" xmlns="http://www.w3.org/2000/svg" xmlns:xlink="http://www.w3.org/1999/xlink"><style>:root>svg{display:none}:root>svg:target{display:block}</style><svg viewBox="0 0 63 50" id="consult" xmlns="http://www.w3.org/2000/svg"><g clip-path="url(#aclip0_312_546)"><path d="M20.27 0c11.198 0 20.271 7.695 20.271 17.188 0 9.492-9.073 17.187-20.27 17.187-1.823 0-3.587-.225-5.273-.605-2.982 1.855-7.286 3.73-12.566 3.73a2.423 2.423 0 01-2.235-1.475 2.457 2.457 0 01.46-2.636c.05-.04 2.206-2.393 3.8-5.47C1.674 24.98 0 21.25 0 17.188 0 7.695 9.076 0 20.27 0zm-4.229 29.111a15.21 15.21 0 004.23.576c8.595 0 15.592-5.605 15.592-12.5 0-6.894-6.997-12.5-15.592-12.5-8.596 0-15.593 5.606-15.593 12.5 0 3.438 1.726 5.977 3.174 7.51l2.293 2.432-1.539 2.959c-.348.586-.738 1.348-1.146 1.992a18.01 18.01 0 005.082-2.383l1.628-.927 1.871.341zM43.036 12.52c10.76.41 19.335 7.939 19.335 17.168 0 4.062-1.676 7.793-4.454 10.732 1.589 3.076 3.743 5.43 3.801 5.469.653.703.838 1.738.37 2.636-.292.899-1.179 1.475-2.153 1.475-5.273 0-9.58-1.875-12.562-3.73-1.686.38-3.45.605-5.273.605-7.99 0-14.9-3.926-18.204-9.62a25.199 25.199 0 004.843-1.132c2.73 3.633 7.7 6.065 13.361 6.065 1.384 0 2.807-.166 4.23-.577l1.871-.341 1.628.927a17.924 17.924 0 005.087 2.383c-.41-.645-.8-1.406-1.15-1.992l-1.54-2.96 2.29-2.43c1.452-1.524 3.177-4.073 3.177-7.51 0-6.475-6.169-11.807-14.12-12.442l.087-.058a17.63 17.63 0 00-.624-4.668z"/></g><defs><clipPath id="aclip0_312_546"><path d="M0 0h62.371v50H0z"/></clipPath></defs></svg><svg viewBox="0 0 26 18" id="mark" xmlns="http://www.w3.org/2000/svg"><path d="M7.215 18L0 11.086l7.215 1.669L26 0 7.215 18z"/></svg><svg viewBox="0 0 384 512" id="mobile" xmlns="http://www.w3.org/2000/svg"><!--! Font Awesome Pro 6.3.0 by @fontawesome - https://fontawesome.com License - https://fontawesome.com/license (Commercial License) Copyright 2023 Fonticons, Inc.--><path d="M0 64C0 28.7 28.7 0 64 0h224c35.3 0 64 28.7 64 64v384c0 35.3-28.7 64-64 64H64c-35.3 0-64-28.7-64-64V64zm208 384a32 32 0 10-64 0 32 32 0 1064 0zm80-384H64v320h224V64z"/></svg><svg viewBox="0 0 63 50" id="persona" xmlns="http://www.w3.org/2000/svg"><path d="M34.375 12.5c0 6.904-5.596 12.5-12.5 12.5s-12.5-5.596-12.5-12.5S14.971 0 21.875 0s12.5 5.596 12.5 12.5zM0 47.1c0-9.62 7.793-17.413 17.412-17.413h8.926c9.619 0 17.412 7.793 17.412 17.413a2.9 2.9 0 01-2.9 2.9H2.9A2.9 2.9 0 010 47.1zm61.035-29.815l-12.5 12.5a2.334 2.334 0 01-3.31 0l-6.25-6.25a2.334 2.334 0 010-3.31c.918-.909 2.402-.918 3.31 0l4.59 4.59 10.84-10.85a2.334 2.334 0 013.31 0c.909.918.918 2.402 0 3.31l.01.01z"/></svg><svg viewBox="0 0 496 512" id="telegram" xmlns="http://www.w3.org/2000/svg"><!--! Font Awesome Pro 6.3.0 by @fontawesome - https://fontawesome.com License - https://fontawesome.com/license (Commercial License) Copyright 2023 Fonticons, Inc.--><path d="M248 8C111.033 8 0 119.033 0 256s111.033 248 248 248 248-111.033 248-248S384.967 8 248 8zm114.952 168.66c-3.732 39.215-19.881 134.378-28.1 178.3-3.476 18.584-10.322 24.816-16.948 25.425-14.4 1.326-25.338-9.517-39.287-18.661-21.827-14.308-34.158-23.215-55.346-37.177-24.485-16.135-8.612-25 5.342-39.5 3.652-3.793 67.107-61.51 68.335-66.746.153-.655.3-3.1-1.154-4.384s-3.59-.849-5.135-.5q-3.283.746-104.608 69.142-14.845 10.194-26.894 9.934c-8.855-.191-25.888-5.006-38.551-9.123-15.531-5.048-27.875-7.717-26.8-16.291q.84-6.7 18.45-13.7 108.446-47.248 144.628-62.3c68.872-28.647 83.183-33.623 92.511-33.789 2.052-.034 6.639.474 9.61 2.885a10.452 10.452 0 013.53 6.716 43.765 43.765 0 01.417 9.769z"/></svg><svg viewBox="0 0 27 30" id="vk" xmlns="http://www.w3.org/2000/svg"><g clip-path="url(#fclip0_339_448)"><path d="M1.831 3.72C0 5.565 0 8.535 0 14.475v1.05c0 5.94 0 8.91 1.831 10.755 1.832 1.845 4.78 1.845 10.674 1.845h1.042c5.895 0 8.843 0 10.674-1.845 1.832-1.845 1.832-4.815 1.832-10.755v-1.05c0-5.94 0-8.91-1.832-10.755-1.83-1.845-4.779-1.845-10.674-1.845h-1.042c-5.895 0-8.842 0-10.674 1.845zm2.565 6.14h2.975c.097 5.009 2.29 7.13 4.027 7.568V9.86h2.8v4.32c1.716-.185 3.518-2.154 4.126-4.32h2.8a8.367 8.367 0 01-1.341 3.124 8.298 8.298 0 01-2.469 2.323 8.58 8.58 0 012.815 2.258 8.658 8.658 0 011.647 3.222h-3.083a5.405 5.405 0 00-1.662-2.636 5.34 5.34 0 00-2.832-1.269v3.905h-.337c-5.938 0-9.325-4.102-9.466-10.927z"/></g><defs><clipPath id="fclip0_339_448"><path d="M0 0h26.053v30H0z"/></clipPath></defs></svg><svg viewBox="0 0 57 50" id="wecan-icon1" xmlns="http://www.w3.org/2000/svg"><g clip-path="url(#gclip0_339_330)"><path d="M39.018 25c0 6.045-4.887 10.938-10.925 10.938-6.038 0-10.925-4.893-10.925-10.938 0-6.045 4.887-10.938 10.925-10.938 6.038 0 10.925 4.893 10.925 10.938zm-12.486-3.125v6.25h-.78c-.859 0-1.561.703-1.561 1.563 0 .859.702 1.562 1.56 1.562h4.683c.858 0 1.56-.703 1.56-1.563 0-.859-.702-1.562-1.56-1.562h-.78v-7.813c0-.859-.703-1.562-1.561-1.562h-1.56c-.86 0-1.562.703-1.562 1.563 0 .859.703 1.562 1.561 1.562zM0 12.5a6.246 6.246 0 016.243-6.25h43.7a6.25 6.25 0 016.243 6.25v25c0 3.447-2.8 6.25-6.243 6.25h-43.7C2.795 43.75 0 40.947 0 37.5v-25zm4.682 4.688v15.625c3.448 0 6.243 2.802 6.243 6.25h34.336c0-3.448 2.8-6.25 6.242-6.25V17.187c-3.443 0-6.242-2.802-6.242-6.25H10.925c0 3.448-2.795 6.25-6.243 6.25z"/></g><defs><clipPath id="gclip0_339_330"><path d="M0 0h56.186v50H0z"/></clipPath></defs></svg><svg viewBox="0 0 57 50" id="wecan-icon2" xmlns="http://www.w3.org/2000/svg"><g clip-path="url(#hclip0_339_347)"><path d="M0 4.688A4.693 4.693 0 014.697 0h28.182c2.593 0 4.697 2.1 4.697 4.688v15.527l-4.15 1.66H26.618c-.862 0-1.567.703-1.567 1.563v6.25c0 .087.01.166.02.253.225 5.674 2.358 14.141 9.658 19.678a4.672 4.672 0 01-1.85.381h-9.393v-7.813a4.693 4.693 0 00-4.697-4.687 4.693 4.693 0 00-4.697 4.688V50H4.697A4.693 4.693 0 010 45.312V4.688zm7.828 17.187c-.86 0-1.565.703-1.565 1.563v3.125c0 .859.704 1.562 1.565 1.562h3.132c.86 0 1.565-.703 1.565-1.563v-3.125c0-.859-.704-1.562-1.565-1.562H7.828zm7.829 1.563v3.125c0 .859.704 1.562 1.565 1.562h3.131c.862 0 1.566-.703 1.566-1.563v-3.125c0-.859-.704-1.562-1.566-1.562h-3.13c-.862 0-1.566.703-1.566 1.563zm-9.394-12.5v3.124c0 .86.704 1.563 1.565 1.563h3.132c.86 0 1.565-.703 1.565-1.563v-3.124c0-.86-.704-1.563-1.565-1.563H7.828c-.86 0-1.565.703-1.565 1.563zm10.96-1.563c-.862 0-1.566.703-1.566 1.563v3.124c0 .86.704 1.563 1.565 1.563h3.131c.862 0 1.566-.703 1.566-1.563v-3.124c0-.86-.704-1.563-1.566-1.563h-3.13zm7.828 1.563v3.124c0 .86.704 1.563 1.565 1.563h3.131c.862 0 1.566-.703 1.566-1.563v-3.124c0-.86-.704-1.563-1.566-1.563h-3.13c-.862 0-1.567.703-1.567 1.563zM41.4 22.04a2.336 2.336 0 011.743 0l11.742 4.688a2.356 2.356 0 011.478 2.177c0 6.182-2.535 16.485-13.191 20.918a2.328 2.328 0 01-1.81 0c-10.647-4.433-13.181-14.736-13.181-20.918 0-.957.587-1.816 1.477-2.177l11.743-4.688zm10.207 8.428l-9.335-3.73v18.349c6.673-3.223 8.953-9.668 9.335-14.62z"/></g><defs><clipPath id="hclip0_339_347"><path d="M0 0h56.364v50H0z"/></clipPath></defs></svg><svg viewBox="0 0 63 50" id="wecan-icon3" xmlns="http://www.w3.org/2000/svg"><g clip-path="url(#iclip0_339_342)"><path d="M37.5 46.875c0 1.143.303 2.207.84 3.125h-.84a3.122 3.122 0 01-3.125-3.125v-9.404a3.122 3.122 0 00-3.125-3.125H25a3.122 3.122 0 00-3.125 3.125v9.404A3.122 3.122 0 0118.75 50H9.385a3.122 3.122 0 01-3.125-3.125v-18.79H3.125C1.367 28.086 0 26.72 0 24.952c0-.879.293-1.66.977-2.344L26.016.781C26.699.098 27.48 0 28.164 0c.684 0 1.465.195 2.05.684L47.92 16.24c-4.248 1.504-7.295 5.557-7.295 10.323v2.402a6.25 6.25 0 00-3.125 5.41v12.5zm14.063-23.438a3.122 3.122 0 00-3.126 3.125v4.688h6.25v-4.688a3.122 3.122 0 00-3.124-3.125zm-7.813 3.125a7.81 7.81 0 017.813-7.812 7.81 7.81 0 017.812 7.813v4.687a3.122 3.122 0 013.125 3.125v12.5A3.122 3.122 0 0159.375 50H43.75a3.122 3.122 0 01-3.125-3.125v-12.5a3.122 3.122 0 013.125-3.125v-4.688z"/></g><defs><clipPath id="iclip0_339_342"><path d="M0 0h62.5v50H0z"/></clipPath></defs></svg><svg viewBox="0 0 63 50" id="wecan-icon4" xmlns="http://www.w3.org/2000/svg"><g clip-path="url(#jclip0_339_333)"><path d="M37.5 9.375V31.25H6.25V9.375H37.5zM6.25 3.125A6.256 6.256 0 000 9.375V31.25a6.256 6.256 0 006.25 6.25h11.455l-1.045 3.125H9.375A3.122 3.122 0 006.25 43.75a3.122 3.122 0 003.125 3.125h25A3.122 3.122 0 0037.5 43.75a3.122 3.122 0 00-3.125-3.125H27.08L26.035 37.5H37.5a6.256 6.256 0 006.25-6.25V9.375a6.256 6.256 0 00-6.25-6.25H6.25zm45.313 0a4.689 4.689 0 00-4.688 4.688v34.374c0 2.588 2.1 4.688 4.688 4.688h6.25c2.587 0 4.687-2.1 4.687-4.688V7.813c0-2.588-2.1-4.688-4.688-4.688h-6.25zm1.562 6.25h3.125c.86 0 1.563.703 1.563 1.563 0 .859-.704 1.562-1.563 1.562h-3.125c-.86 0-1.563-.703-1.563-1.563 0-.859.704-1.562 1.563-1.562zm-1.563 7.813c0-.86.704-1.563 1.563-1.563h3.125c.86 0 1.563.703 1.563 1.563 0 .859-.704 1.562-1.563 1.562h-3.125c-.86 0-1.563-.703-1.563-1.563zm3.126 21.875a3.122 3.122 0 01-3.126-3.126 3.122 3.122 0 013.126-3.124 3.122 3.122 0 013.124 3.124 3.122 3.122 0 01-3.124 3.126z"/></g><defs><clipPath id="jclip0_339_333"><path d="M0 0h62.5v50H0z"/></clipPath></defs></svg><svg viewBox="0 0 57 50" id="wecan-icon5" xmlns="http://www.w3.org/2000/svg"><g clip-path="url(#kclip0_339_351)"><path d="M0 7.813V12.5a3.122 3.122 0 003.125 3.125h6.25V7.812a4.689 4.689 0 00-9.375 0zm10.938-4.688A7.814 7.814 0 0112.5 7.813V37.5a6.256 6.256 0 006.25 6.25A6.256 6.256 0 0025 37.5v-.518a5.735 5.735 0 015.732-5.732h16.143V12.5c0-5.176-4.2-9.375-9.375-9.375H10.937zm34.374 43.75A10.932 10.932 0 0056.25 35.937c0-.859-.703-1.562-1.563-1.562H30.733a2.607 2.607 0 00-2.607 2.607v.518c0 5.176-4.2 9.375-9.375 9.375H45.312z"/></g><defs><clipPath id="kclip0_339_351"><path d="M0 0h56.25v50H0z"/></clipPath></defs></svg><svg viewBox="0 0 57 50" id="wecan-icon6" xmlns="http://www.w3.org/2000/svg"><g clip-path="url(#lclip0_339_338)"><path d="M16.406 32.813a2.338 2.338 0 012.344 2.343 2.338 2.338 0 01-2.344 2.344H11.72a2.338 2.338 0 01-2.344-2.344 2.338 2.338 0 012.344-2.343h4.687zm18.75 0a2.338 2.338 0 012.344 2.343 2.338 2.338 0 01-2.344 2.344H24.22a2.338 2.338 0 01-2.344-2.344 2.338 2.338 0 012.344-2.343h10.937zM50 3.125a6.253 6.253 0 016.25 6.25v31.25a6.256 6.256 0 01-6.25 6.25H6.25A6.253 6.253 0 010 40.625V9.375a6.25 6.25 0 016.25-6.25H50zm0 4.688H6.25c-.863 0-1.563.699-1.563 1.562V12.5h46.876V9.375c0-.863-.704-1.563-1.563-1.563zm1.563 14.062H4.687v18.75c0 .86.7 1.563 1.563 1.563H50c.86 0 1.563-.704 1.563-1.563v-18.75z"/></g><defs><clipPath id="lclip0_339_338"><path d="M0 0h56.25v50H0z"/></clipPath></defs></svg><svg viewBox="0 0 63 50" id="weight" xmlns="http://www.w3.org/2000/svg"><g clip-path="url(#mclip0_312_548)"><path d="M37.563 3.125h12.521a3.124 3.124 0 110 6.25H38.972a7.804 7.804 0 01-4.54 5.596V43.75h15.652a3.124 3.124 0 110 6.25H12.521a3.124 3.124 0 110-6.25h15.651V14.97c-2.299-1.005-4.03-3.085-4.539-5.595H12.521a3.124 3.124 0 110-6.25h12.521A7.823 7.823 0 0131.302 0a7.822 7.822 0 016.261 3.125zm-25.257 14.19L4.999 31.25h15.044l-7.307-13.936a.243.243 0 00-.215-.127.255.255 0 00-.215.127zm.215-4.815a4.934 4.934 0 014.373 2.637l7.61 14.502c.303.566.597 1.367.538 2.324a8.242 8.242 0 01-2.426 5.38c-1.986 1.973-5.184 3.282-10.095 3.282-4.91 0-8.11-1.309-10.095-3.272A8.21 8.21 0 010 31.973c-.059-.957.245-1.758.538-2.325l7.61-14.511a4.934 4.934 0 014.373-2.637zm37.563 4.688a.255.255 0 00-.215.127L42.562 31.25h15.044L50.3 17.314a.243.243 0 00-.215-.127zm-4.373-2.051a4.934 4.934 0 014.373-2.637 4.934 4.934 0 014.373 2.637l7.61 14.502c.303.566.597 1.367.538 2.324a8.243 8.243 0 01-2.426 5.38c-1.986 1.973-5.184 3.282-10.095 3.282-4.91 0-8.11-1.309-10.095-3.272a8.211 8.211 0 01-2.426-5.38c-.059-.957.245-1.758.538-2.325l7.61-14.511z"/></g><defs><clipPath id="mclip0_312_548"><path d="M0 0h62.605v50H0z"/></clipPath></defs></svg><svg viewBox="0 0 448 512" id="whatsapp" xmlns="http://www.w3.org/2000/svg"><!--! Font Awesome Pro 6.3.0 by @fontawesome - https://fontawesome.com License - https://fontawesome.com/license (Commercial License) Copyright 2023 Fonticons, Inc.--><path d="M380.9 97.1C339 55.1 283.2 32 223.9 32c-122.4 0-222 99.6-222 222 0 39.1 10.2 77.3 29.6 111L0 480l117.7-30.9c32.4 17.7 68.9 27 106.1 27h.1c122.3 0 224.1-99.6 224.1-222 0-59.3-25.2-115-67.1-157zm-157 341.6c-33.2 0-65.7-8.9-94-25.7l-6.7-4-69.8 18.3L72 359.2l-4.4-7c-18.5-29.4-28.2-63.3-28.2-98.2 0-101.7 82.8-184.5 184.6-184.5 49.3 0 95.6 19.2 130.4 54.1 34.8 34.9 56.2 81.2 56.1 130.5 0 101.8-84.9 184.6-186.6 184.6zm101.2-138.2c-5.5-2.8-32.8-16.2-37.9-18-5.1-1.9-8.8-2.8-12.5 2.8-3.7 5.6-14.3 18-17.6 21.8-3.2 3.7-6.5 4.2-12 1.4-32.6-16.3-54-29.1-75.5-66-5.7-9.8 5.7-9.1 16.3-30.3 1.8-3.7.9-6.9-.5-9.7-1.4-2.8-12.5-30.1-17.1-41.2-4.5-10.8-9.1-9.3-12.5-9.5-3.2-.2-6.9-.2-10.6-.2-3.7 0-9.7 1.4-14.8 6.9-5.1 5.6-19.4 19-19.4 46.3 0 27.3 19.9 53.7 22.6 57.4 2.8 3.7 39.1 59.7 94.8 83.8 35.2 15.2 49 16.5 66.6 13.9 10.7-1.6 32.8-13.4 37.4-26.4 4.6-13 4.6-24.1 3.2-26.4-1.3-2.5-5-3.9-10.5-6.6z"/></svg></svg>