<svg width="63" height="50" viewBox="0 0 63 50" fill="none" xmlns="http://www.w3.org/2000/svg">
<g clip-path="url(#clip0_312_546)">
<path d="M20.2706 0C31.4682 0 40.5412 7.69531 40.5412 17.1875C40.5412 26.6797 31.4682 34.375 20.2706 34.375C18.4482 34.375 16.6843 34.1504 14.9983 33.7695C12.0162 35.625 7.71161 37.5 2.4315 37.5C1.4589 37.5 0.577908 36.9238 0.196664 36.0254C-0.184775 35.127 -0.00072117 34.0918 0.656749 33.3887C0.707523 33.3496 2.86322 30.9961 4.45661 27.9199C1.67428 24.9805 0 21.25 0 17.1875C0 7.69531 9.07597 0 20.2706 0ZM16.0411 29.1113C17.4639 29.5215 18.8868 29.6875 20.2706 29.6875C28.8661 29.6875 35.8634 24.082 35.8634 17.1875C35.8634 10.293 28.8661 4.6875 20.2706 4.6875C11.6751 4.6875 4.67783 10.293 4.67783 17.1875C4.67783 20.625 6.40376 23.1641 7.85194 24.6973L10.1451 27.1289L8.60624 30.0879C8.25833 30.6738 7.86753 31.4355 7.46017 32.0801C9.1861 31.582 10.8857 30.8105 12.5424 29.6973L14.1699 28.7695L16.0411 29.1113ZM43.0361 12.5195C53.7951 12.9297 62.3711 20.459 62.3711 29.6875C62.3711 33.75 60.6949 37.4805 57.9174 40.4199C59.506 43.4961 61.6597 45.8496 61.7182 45.8887C62.3711 46.5918 62.5563 47.627 62.0885 48.5254C61.7962 49.4238 60.9093 50 59.9348 50C54.6625 50 50.3549 48.125 47.3728 46.2695C45.6869 46.6504 43.9229 46.875 42.1005 46.875C34.1092 46.875 27.1997 42.9492 23.8959 37.2559C25.5819 37.0312 27.1997 36.6504 28.7394 36.123C31.4682 39.7559 36.4384 42.1875 42.1005 42.1875C43.4844 42.1875 44.9072 42.0215 46.3301 41.6113L48.2012 41.2695L49.8287 42.1973C51.4854 43.3105 53.1811 44.082 54.9158 44.5801C54.5065 43.9355 54.1167 43.1738 53.7659 42.5879L52.2261 39.6289L54.5163 37.1973C55.9683 35.6738 57.6933 33.125 57.6933 29.6875C57.6933 23.2129 51.5244 17.8809 43.5721 17.2461L43.6598 17.1875C43.6598 15.5762 43.4454 14.0137 43.0361 12.5195Z" fill="#333333"/>
</g>
<defs>
<clipPath id="clip0_312_546">
<rect width="62.3711" height="50" fill="white"/>
</clipPath>
</defs>
</svg>
