<svg width="63" height="50" viewBox="0 0 63 50" fill="none" xmlns="http://www.w3.org/2000/svg">
<path d="M34.375 12.5C34.375 19.4043 28.7793 25 21.875 25C14.9707 25 9.375 19.4043 9.375 12.5C9.375 5.5957 14.9707 0 21.875 0C28.7793 0 34.375 5.5957 34.375 12.5ZM0 47.0996C0 37.4805 7.79297 29.6875 17.4121 29.6875H26.3379C35.957 29.6875 43.75 37.4805 43.75 47.0996C43.75 48.7012 42.4512 50 40.8496 50H2.90039C1.29883 50 0 48.7012 0 47.0996ZM61.0352 17.2852L48.5352 29.7852C47.6172 30.7031 46.1328 30.7031 45.2246 29.7852L38.9746 23.5352C38.0566 22.6172 38.0566 21.1328 38.9746 20.2246C39.8926 19.3164 41.377 19.3066 42.2852 20.2246L46.875 24.8145L57.7148 13.9648C58.6328 13.0469 60.1172 13.0469 61.0254 13.9648C61.9336 14.8828 61.9434 16.3672 61.0254 17.2754L61.0352 17.2852Z" fill="#333333"/>
</svg>
