<svg width="27" height="30" viewBox="0 0 27 30" fill="none" xmlns="http://www.w3.org/2000/svg">
<g clip-path="url(#clip0_339_448)">
<path d="M1.83128 3.72016C0 5.56531 0 8.53541 0 14.475V15.525C0 21.4646 0 24.4347 1.83128 26.2798C3.66256 28.125 6.61033 28.125 12.5053 28.125H13.5474C19.4423 28.125 22.3901 28.125 24.2213 26.2798C26.0526 24.4347 26.0526 21.4646 26.0526 15.525V14.475C26.0526 8.53541 26.0526 5.56531 24.2213 3.72016C22.3901 1.875 19.4423 1.875 13.5474 1.875H12.5053C6.61033 1.875 3.66256 1.875 1.83128 3.72016ZM4.39638 9.85939H7.37074C7.46844 14.8687 9.66116 16.9906 11.398 17.4281V9.85939H14.1987V14.1797C15.9138 13.9938 17.7158 12.025 18.3237 9.85939H21.1243C20.8952 10.9825 20.4385 12.0459 19.7829 12.9831C19.1273 13.9204 18.2869 14.7112 17.3141 15.3063C18.4003 15.8496 19.3596 16.6189 20.1287 17.5635C20.8978 18.5082 21.4591 19.6065 21.7756 20.786H18.6928C18.4087 19.7614 17.8306 18.8443 17.031 18.1496C16.2315 17.455 15.2462 17.0138 14.1987 16.8813V20.786H13.8622C7.92436 20.786 4.5375 16.6844 4.39638 9.85939Z" fill="#4C75A3"/>
</g>
<defs>
<clipPath id="clip0_339_448">
<rect width="26.0526" height="30" fill="white"/>
</clipPath>
</defs>
</svg>
