<svg width="57" height="50" viewBox="0 0 57 50" fill="none" xmlns="http://www.w3.org/2000/svg">
<g clip-path="url(#clip0_339_347)">
<path d="M0 4.6875C0 2.09961 2.10385 0 4.69697 0H32.8788C35.4719 0 37.5758 2.09961 37.5758 4.6875V20.2148L33.4268 21.875H29.7475H26.6162C25.7551 21.875 25.0505 22.5781 25.0505 23.4375V26.5625V28.9258V29.6875C25.0505 29.7754 25.0603 29.8535 25.0701 29.9414C25.2951 35.6152 27.4283 44.082 34.7282 49.6191C34.1607 49.8633 33.5344 50 32.8788 50H23.4848V42.1875C23.4848 39.5996 21.381 37.5 18.7879 37.5C16.1948 37.5 14.0909 39.5996 14.0909 42.1875V50H4.69697C2.10385 50 0 47.9004 0 45.3125V4.6875ZM7.82828 21.875C6.96717 21.875 6.26263 22.5781 6.26263 23.4375V26.5625C6.26263 27.4219 6.96717 28.125 7.82828 28.125H10.9596C11.8207 28.125 12.5253 27.4219 12.5253 26.5625V23.4375C12.5253 22.5781 11.8207 21.875 10.9596 21.875H7.82828ZM15.6566 23.4375V26.5625C15.6566 27.4219 16.3611 28.125 17.2222 28.125H20.3535C21.2146 28.125 21.9192 27.4219 21.9192 26.5625V23.4375C21.9192 22.5781 21.2146 21.875 20.3535 21.875H17.2222C16.3611 21.875 15.6566 22.5781 15.6566 23.4375ZM6.26263 10.9375V14.0625C6.26263 14.9219 6.96717 15.625 7.82828 15.625H10.9596C11.8207 15.625 12.5253 14.9219 12.5253 14.0625V10.9375C12.5253 10.0781 11.8207 9.375 10.9596 9.375H7.82828C6.96717 9.375 6.26263 10.0781 6.26263 10.9375ZM17.2222 9.375C16.3611 9.375 15.6566 10.0781 15.6566 10.9375V14.0625C15.6566 14.9219 16.3611 15.625 17.2222 15.625H20.3535C21.2146 15.625 21.9192 14.9219 21.9192 14.0625V10.9375C21.9192 10.0781 21.2146 9.375 20.3535 9.375H17.2222ZM25.0505 10.9375V14.0625C25.0505 14.9219 25.7551 15.625 26.6162 15.625H29.7475C30.6086 15.625 31.3131 14.9219 31.3131 14.0625V10.9375C31.3131 10.0781 30.6086 9.375 29.7475 9.375H26.6162C25.7551 9.375 25.0505 10.0781 25.0505 10.9375ZM41.4018 22.041C41.9596 21.8164 42.5859 21.8164 43.1436 22.041L54.8861 26.7285C55.7765 27.0898 56.3636 27.9492 56.3636 28.9062C56.3636 35.0879 53.8292 45.3906 43.173 49.8242C42.5956 50.0684 41.94 50.0684 41.3627 49.8242C30.7162 45.3906 28.1818 35.0879 28.1818 28.9062C28.1818 27.9492 28.7689 27.0898 29.6594 26.7285L41.4018 22.041ZM51.608 30.4688L42.2727 26.7383V45.0879C48.9463 41.8652 51.2263 35.4199 51.608 30.4688Z" fill="white"/>
</g>
<defs>
<clipPath id="clip0_339_347">
<rect width="56.3636" height="50" fill="white"/>
</clipPath>
</defs>
</svg>
