<svg width="57" height="50" viewBox="0 0 57 50" fill="none" xmlns="http://www.w3.org/2000/svg">
<g clip-path="url(#clip0_339_351)">
<path d="M0 7.8125V12.5C0 14.2285 1.39648 15.625 3.125 15.625H4.6875H9.375V7.8125C9.375 5.22461 7.27539 3.125 4.6875 3.125C2.09961 3.125 0 5.22461 0 7.8125ZM10.9375 3.125C11.9141 4.43359 12.5 6.05469 12.5 7.8125V37.5C12.5 40.9473 15.3027 43.75 18.75 43.75C22.1973 43.75 25 40.9473 25 37.5V36.9824C25 33.8184 27.5684 31.25 30.7324 31.25H46.875V12.5C46.875 7.32422 42.6758 3.125 37.5 3.125H10.9375ZM45.3125 46.875C51.3574 46.875 56.25 41.9824 56.25 35.9375C56.25 35.0781 55.5469 34.375 54.6875 34.375H30.7324C29.2969 34.375 28.125 35.5371 28.125 36.9824V37.5C28.125 42.6758 23.9258 46.875 18.75 46.875H35.9375H45.3125Z" fill="white"/>
</g>
<defs>
<clipPath id="clip0_339_351">
<rect width="56.25" height="50" fill="white"/>
</clipPath>
</defs>
</svg>
