<svg width="57" height="50" viewBox="0 0 57 50" fill="none" xmlns="http://www.w3.org/2000/svg">
<g clip-path="url(#clip0_339_330)">
<path d="M39.0178 25C39.0178 31.0449 34.1308 35.9375 28.0928 35.9375C22.0548 35.9375 17.1678 31.0449 17.1678 25C17.1678 18.9551 22.0548 14.0625 28.0928 14.0625C34.1308 14.0625 39.0178 18.9551 39.0178 25ZM26.5321 21.875V28.125H25.7517C24.8933 28.125 24.191 28.8281 24.191 29.6875C24.191 30.5469 24.8933 31.25 25.7517 31.25H30.4338C31.2922 31.25 31.9946 30.5469 31.9946 29.6875C31.9946 28.8281 31.2922 28.125 30.4338 28.125H29.6535V20.3125C29.6535 19.4531 28.9512 18.75 28.0928 18.75H26.5321C25.6737 18.75 24.9714 19.4531 24.9714 20.3125C24.9714 21.1719 25.6737 21.875 26.5321 21.875ZM0 12.5C0 9.04785 2.79465 6.25 6.24284 6.25H49.9427C53.386 6.25 56.1856 9.04785 56.1856 12.5V37.5C56.1856 40.9473 53.386 43.75 49.9427 43.75H6.24284C2.79465 43.75 0 40.9473 0 37.5V12.5ZM4.68213 17.1875V32.8125C8.13032 32.8125 10.925 35.6152 10.925 39.0625H45.2606C45.2606 35.6152 48.0601 32.8125 51.5034 32.8125V17.1875C48.0601 17.1875 45.2606 14.3848 45.2606 10.9375H10.925C10.925 14.3848 8.13032 17.1875 4.68213 17.1875Z" fill="white"/>
</g>
<defs>
<clipPath id="clip0_339_330">
<rect width="56.1856" height="50" fill="white"/>
</clipPath>
</defs>
</svg>
