<svg width="63" height="50" viewBox="0 0 63 50" fill="none" xmlns="http://www.w3.org/2000/svg">
<g clip-path="url(#clip0_339_342)">
<path d="M37.5 46.875C37.5 48.0176 37.8027 49.082 38.3398 50H37.5C35.7715 50 34.375 48.6035 34.375 46.875V37.4707C34.375 35.7422 32.9785 34.3457 31.25 34.3457H25C23.2715 34.3457 21.875 35.7422 21.875 37.4707V46.875C21.875 48.6035 20.4785 50 18.75 50H9.38477C7.65625 50 6.25977 48.6035 6.25977 46.875V28.0859H3.125C1.36719 28.0859 0 26.7188 0 24.9512C0 24.0723 0.292969 23.291 0.976562 22.6074L26.0156 0.78125C26.6992 0.0976562 27.4805 0 28.1641 0C28.8477 0 29.6289 0.195312 30.2148 0.683594L47.9199 16.2402C43.6719 17.7441 40.625 21.7969 40.625 26.5625V28.9648C38.7598 30.0488 37.5 32.0605 37.5 34.375V46.875ZM51.5625 23.4375C49.834 23.4375 48.4375 24.834 48.4375 26.5625V31.25H54.6875V26.5625C54.6875 24.834 53.291 23.4375 51.5625 23.4375ZM43.75 26.5625C43.75 22.2461 47.2461 18.75 51.5625 18.75C55.8789 18.75 59.375 22.2461 59.375 26.5625V31.25C61.1035 31.25 62.5 32.6465 62.5 34.375V46.875C62.5 48.6035 61.1035 50 59.375 50H43.75C42.0215 50 40.625 48.6035 40.625 46.875V34.375C40.625 32.6465 42.0215 31.25 43.75 31.25V26.5625Z" fill="white"/>
</g>
<defs>
<clipPath id="clip0_339_342">
<rect width="62.5" height="50" fill="white"/>
</clipPath>
</defs>
</svg>
