<svg width="57" height="50" viewBox="0 0 57 50" fill="none" xmlns="http://www.w3.org/2000/svg">
<g clip-path="url(#clip0_339_338)">
<path d="M16.4062 32.8125C17.7051 32.8125 18.75 33.8574 18.75 35.1562C18.75 36.4551 17.7051 37.5 16.4062 37.5H11.7188C10.4199 37.5 9.375 36.4551 9.375 35.1562C9.375 33.8574 10.4199 32.8125 11.7188 32.8125H16.4062ZM35.1562 32.8125C36.4551 32.8125 37.5 33.8574 37.5 35.1562C37.5 36.4551 36.4551 37.5 35.1562 37.5H24.2188C22.9199 37.5 21.875 36.4551 21.875 35.1562C21.875 33.8574 22.9199 32.8125 24.2188 32.8125H35.1562ZM50 3.125C53.4473 3.125 56.25 5.92285 56.25 9.375V40.625C56.25 44.0723 53.4473 46.875 50 46.875H6.25C2.79785 46.875 0 44.0723 0 40.625V9.375C0 5.92285 2.79785 3.125 6.25 3.125H50ZM50 7.8125H6.25C5.38672 7.8125 4.6875 8.51172 4.6875 9.375V12.5H51.5625V9.375C51.5625 8.51172 50.8594 7.8125 50 7.8125ZM51.5625 21.875H4.6875V40.625C4.6875 41.4844 5.38672 42.1875 6.25 42.1875H50C50.8594 42.1875 51.5625 41.4844 51.5625 40.625V21.875Z" fill="white"/>
</g>
<defs>
<clipPath id="clip0_339_338">
<rect width="56.25" height="50" fill="white"/>
</clipPath>
</defs>
</svg>
