<svg width="63" height="50" viewBox="0 0 63 50" fill="none" xmlns="http://www.w3.org/2000/svg">
<g clip-path="url(#clip0_312_548)">
<path d="M37.563 3.125H50.0841C51.8155 3.125 53.2143 4.52148 53.2143 6.25C53.2143 7.97852 51.8155 9.375 50.0841 9.375H38.9717C38.463 11.8945 36.7316 13.9746 34.4328 14.9707V43.75H50.0841C51.8155 43.75 53.2143 45.1465 53.2143 46.875C53.2143 48.6035 51.8155 50 50.0841 50H31.3025H12.521C10.7896 50 9.39078 48.6035 9.39078 46.875C9.39078 45.1465 10.7896 43.75 12.521 43.75H28.1723V14.9707C25.8735 13.9648 24.1421 11.8848 23.6334 9.375H12.521C10.7896 9.375 9.39078 7.97852 9.39078 6.25C9.39078 4.52148 10.7896 3.125 12.521 3.125H25.042C26.4702 1.23047 28.7397 0 31.3025 0C33.8654 0 36.1349 1.23047 37.563 3.125ZM12.3058 17.3145L4.99865 31.25H20.0434L12.7362 17.3145C12.6971 17.2363 12.6091 17.1875 12.521 17.1875C12.433 17.1875 12.3547 17.2363 12.3058 17.3145ZM12.521 12.5C14.3601 12.5 16.0426 13.5156 16.8936 15.1367L24.504 29.6387C24.8073 30.2051 25.1007 31.0059 25.042 31.9629C24.9736 33.1445 24.5725 35.4004 22.6161 37.3438C20.6303 39.3164 17.4316 40.625 12.521 40.625C7.61045 40.625 4.41172 39.3164 2.42597 37.3535C0.469563 35.4004 0.0587179 33.1543 2.56826e-05 31.9727C-0.0586665 31.0156 0.244577 30.2148 0.538038 29.6484L8.14846 15.1367C8.9995 13.5156 10.682 12.5 12.521 12.5ZM50.0841 17.1875C49.996 17.1875 49.9178 17.2363 49.8689 17.3145L42.5617 31.25H57.6064L50.2993 17.3145C50.2601 17.2363 50.1721 17.1875 50.0841 17.1875ZM45.7115 15.1367C46.5625 13.5156 48.245 12.5 50.0841 12.5C51.9231 12.5 53.6056 13.5156 54.4566 15.1367L62.0671 29.6387C62.3703 30.2051 62.6638 31.0059 62.6051 31.9629C62.5366 33.1445 62.1355 35.4004 60.1791 37.3438C58.1934 39.3164 54.9946 40.625 50.0841 40.625C45.1735 40.625 41.9747 39.3164 39.989 37.3535C38.0326 35.4004 37.6217 33.1543 37.563 31.9727C37.5044 31.0156 37.8076 30.2148 38.1011 29.6484L45.7115 15.1367Z" fill="#333333"/>
</g>
<defs>
<clipPath id="clip0_312_548">
<rect width="62.605" height="50" fill="white"/>
</clipPath>
</defs>
</svg>
